<svg width="1440" height="2246" viewBox="0 0 1440 2246" fill="none" xmlns="http://www.w3.org/2000/svg" preserveAspectRatio="none">
<g clip-path="url(#clip0_311_106)">
<rect width="1440" height="2896" transform="translate(0 -110)" />
<path opacity="0.5" fill-rule="evenodd" clip-rule="evenodd" d="M1196.2 1930.25C1227.96 1888.65 1291.89 1905.74 1343.38 1896.31C1391.81 1887.44 1439.89 1856.09 1484.22 1877.5C1531.55 1900.36 1556.73 1952.94 1567.25 2004.44C1577.65 2055.32 1569.17 2108.7 1540.28 2151.85C1511.86 2194.27 1465.4 2218.67 1415.77 2230.63C1364.74 2242.92 1308.2 2247.73 1264.8 2218.21C1222.1 2189.16 1212.1 2134.17 1200.13 2083.93C1187.79 2032.11 1163.87 1972.59 1196.2 1930.25Z" fill="#FFED9A"/>
<path opacity="0.5" fill-rule="evenodd" clip-rule="evenodd" d="M-16.6738 174.015C15.9828 131.242 81.7191 148.814 134.653 139.119C184.45 129.999 233.876 97.7613 279.462 119.779C328.125 143.282 354.013 197.345 364.83 250.292C375.518 302.602 366.802 357.49 337.092 401.85C307.881 445.465 260.111 470.552 209.078 482.846C156.61 495.485 98.4806 500.436 53.8591 470.079C9.95649 440.212 -0.319865 383.674 -12.6254 332.02C-25.3184 278.741 -49.9107 217.548 -16.6738 174.015Z" fill="#FFED9A"/>
<path opacity="0.5" fill-rule="evenodd" clip-rule="evenodd" d="M1400.25 294.295C1487.3 274.432 1583.97 254.704 1656.55 310.425C1737.33 372.441 1785.94 480.839 1782.86 588.031C1779.85 692.872 1712.15 777.632 1641.07 848.875C1573.39 916.718 1491.77 983.781 1400.25 971.546C1313.98 960.014 1271.02 861.016 1212.34 791.564C1158.05 727.315 1071.48 674.978 1076.18 588.031C1080.83 502.131 1172.22 462.256 1233.14 407.033C1285.46 359.611 1333.49 309.526 1400.25 294.295Z" fill="#FFD200"/>
<path opacity="0.5" fill-rule="evenodd" clip-rule="evenodd" d="M17.2483 1057.29C104.301 1037.43 200.968 1017.7 273.548 1073.43C354.328 1135.44 402.943 1243.84 399.862 1351.03C396.849 1455.87 329.148 1540.63 258.072 1611.88C190.389 1679.72 108.773 1746.78 17.2483 1734.55C-69.0201 1723.01 -111.977 1624.02 -170.663 1554.56C-224.953 1490.31 -311.52 1437.98 -306.816 1351.03C-302.168 1265.13 -210.783 1225.26 -149.858 1170.03C-97.5403 1122.61 -49.5069 1072.53 17.2483 1057.29Z" fill="#FFD200"/>
</g>
<defs>
<clipPath id="clip0_311_106">
<rect width="1440" height="2896" fill="white" transform="translate(0 -110)"/>
</clipPath>
</defs>
</svg>
