<svg width="1440" height="390" viewBox="0 0 1440 390" fill="none" xmlns="http://www.w3.org/2000/svg">
<g clip-path="url(#clip0_123_22)">
<rect width="1440" height="1193" transform="translate(0 -693)" fill="white"/>
<path fill-rule="evenodd" clip-rule="evenodd" d="M-259 160.777L-171.37 180.984C-83.7407 201.192 91.5185 241.606 263.407 265.181C438.667 285.389 613.926 285.389 789.185 231.503C961.074 180.984 1136.33 76.5802 1311.59 86.6838C1486.85 96.7875 1658.74 221.399 1746.37 285.389L1834 346.01V410H1746.37C1658.74 410 1486.85 410 1311.59 410C1136.33 410 961.074 410 789.185 410C613.926 410 438.667 410 263.407 410C91.5185 410 -83.7407 410 -171.37 410H-259V160.777Z" fill="#FFD200"/>
<path fill-rule="evenodd" clip-rule="evenodd" d="M1698 267.777L1610.37 287.984C1522.74 308.192 1347.48 348.606 1175.59 372.181C1000.33 392.389 825.074 392.389 649.815 338.503C477.926 287.984 302.667 183.58 127.407 193.684C-47.8518 203.787 -219.741 328.399 -307.37 392.389L-395 453.01V517H-307.37C-219.741 517 -47.8518 517 127.407 517C302.667 517 477.926 517 649.815 517C825.074 517 1000.33 517 1175.59 517C1347.48 517 1522.74 517 1610.37 517H1698V267.777Z" fill="#FFED9A"/>
</g>
<defs>
<clipPath id="clip0_123_22">
<rect width="1440" height="1193" fill="white" transform="translate(0 -693)"/>
</clipPath>
</defs>
</svg>

