<svg width="1440" height="352" viewBox="0 0 1440 352" fill="none" xmlns="http://www.w3.org/2000/svg" preserveAspectRatio="none">
<g clip-path="url(#clip0_312_244)">
<rect width="1440" height="2518" transform="translate(0 -2039)" />
<path fill-rule="evenodd" clip-rule="evenodd" d="M-259 86.0544L-171.37 109.309C-83.7407 132.564 91.5185 179.073 263.407 206.204C438.667 229.459 613.926 229.459 789.185 167.446C961.074 109.309 1136.33 -10.8404 1311.59 0.786966C1486.85 12.4143 1658.74 155.819 1746.37 229.459L1834 299.223V372.863H1746.37C1658.74 372.863 1486.85 372.863 1311.59 372.863C1136.33 372.863 961.074 372.863 789.185 372.863C613.926 372.863 438.667 372.863 263.407 372.863C91.5185 372.863 -83.7407 372.863 -171.37 372.863H-259V86.0544Z" fill="#FFD200"/>
<path fill-rule="evenodd" clip-rule="evenodd" d="M1698 209.191L1610.37 232.446C1522.74 255.701 1347.48 302.21 1175.59 329.341C1000.33 352.595 825.074 352.595 649.815 290.583C477.926 232.446 302.667 112.296 127.407 123.924C-47.8519 135.551 -219.741 278.955 -307.37 352.595L-395 422.36V496H-307.37C-219.741 496 -47.8519 496 127.407 496C302.667 496 477.926 496 649.815 496C825.074 496 1000.33 496 1175.59 496C1347.48 496 1522.74 496 1610.37 496H1698V209.191Z" fill="#FFED9A"/>
</g>
<defs>
<clipPath id="clip0_312_244">
<rect width="1440" height="2518" fill="white" transform="translate(0 -2039)"/>
</clipPath>
</defs>
</svg>
