<svg width="1440" height="2172" viewBox="0 0 1440 2172" fill="none" xmlns="http://www.w3.org/2000/svg">
<g clip-path="url(#clip0_311_198)">
<rect width="1440" height="2376" transform="translate(0 -110)" fill="white"/>
<path opacity="0.5" fill-rule="evenodd" clip-rule="evenodd" d="M-252.816 753.282C-303.055 674.286 -356.943 585.809 -339.843 496.455C-320.812 397.007 -251.356 314.059 -162.676 282.246C-75.9412 251.132 19.6941 290.041 105.618 336.655C187.44 381.045 274.072 439.366 299.866 533.182C324.179 621.611 260.182 695.951 226.446 776.129C195.237 850.3 186.367 952.284 113.573 975.923C41.656 999.277 -26.6076 922.532 -95.4898 880.675C-154.641 844.731 -214.291 813.859 -252.816 753.282Z" fill="#FFD200"/>
<path opacity="0.5" fill-rule="evenodd" clip-rule="evenodd" d="M1321.25 45.2945C1408.3 25.4318 1504.97 5.70411 1577.55 61.4251C1658.33 123.441 1706.94 231.839 1703.86 339.031C1700.85 443.872 1633.15 528.632 1562.07 599.875C1494.39 667.718 1412.77 734.781 1321.25 722.546C1234.98 711.014 1192.02 612.016 1133.34 542.564C1079.05 478.315 992.48 425.978 997.184 339.031C1001.83 253.131 1093.22 213.256 1154.14 158.033C1206.46 110.611 1254.49 60.526 1321.25 45.2945Z" fill="#FFED9A"/>
<path fill-rule="evenodd" clip-rule="evenodd" d="M19.2483 1355.29C106.301 1335.43 202.968 1315.7 275.548 1371.43C356.328 1433.44 404.943 1541.84 401.862 1649.03C398.849 1753.87 331.148 1838.63 260.072 1909.88C192.389 1977.72 110.773 2044.78 19.2483 2032.55C-67.0201 2021.01 -109.977 1922.02 -168.663 1852.56C-222.953 1788.31 -309.52 1735.98 -304.816 1649.03C-300.168 1563.13 -208.783 1523.26 -147.858 1468.03C-95.5403 1420.61 -47.5069 1370.53 19.2483 1355.29Z" fill="#FFD200"/>
<path opacity="0.5" fill-rule="evenodd" clip-rule="evenodd" d="M1241.2 1854.25C1272.96 1812.65 1336.89 1829.74 1388.38 1820.31C1436.81 1811.44 1484.89 1780.09 1529.22 1801.5C1576.55 1824.36 1601.73 1876.94 1612.25 1928.44C1622.65 1979.32 1614.17 2032.7 1585.28 2075.85C1556.86 2118.27 1510.4 2142.67 1460.77 2154.63C1409.74 2166.92 1353.2 2171.73 1309.8 2142.21C1267.1 2113.16 1257.1 2058.17 1245.13 2007.93C1232.79 1956.11 1208.87 1896.59 1241.2 1854.25Z" fill="#FFED9A"/>
</g>
<defs>
<clipPath id="clip0_311_198">
<rect width="1440" height="2376" fill="white" transform="translate(0 -110)"/>
</clipPath>
</defs>
</svg>
