<svg width="1440" height="2140" viewBox="0 0 1440 2140" fill="none" xmlns="http://www.w3.org/2000/svg" preserveAspectRatio="none">
<path opacity="0.5" fill-rule="evenodd" clip-rule="evenodd" d="M-252.816 728.282C-303.055 649.286 -356.943 560.809 -339.843 471.455C-320.812 372.007 -251.356 289.059 -162.676 257.246C-75.9412 226.132 19.6941 265.041 105.618 311.655C187.44 356.045 274.072 414.366 299.866 508.182C324.179 596.611 260.182 670.951 226.446 751.129C195.237 825.3 186.367 927.284 113.573 950.923C41.656 974.277 -26.6076 897.532 -95.4898 855.675C-154.641 819.731 -214.291 788.859 -252.816 728.282Z" fill="#FFD200"/>
<path opacity="0.5" fill-rule="evenodd" clip-rule="evenodd" d="M1321.25 20.2945C1408.3 0.431808 1504.97 -19.2959 1577.55 36.4251C1658.33 98.441 1706.94 206.839 1703.86 314.031C1700.85 418.872 1633.15 503.632 1562.07 574.875C1494.39 642.718 1412.77 709.781 1321.25 697.546C1234.98 686.014 1192.02 587.016 1133.34 517.564C1079.05 453.315 992.48 400.978 997.184 314.031C1001.83 228.131 1093.22 188.256 1154.14 133.033C1206.46 85.6115 1254.49 35.526 1321.25 20.2945Z" fill="#FFED9A"/>
<path fill-rule="evenodd" clip-rule="evenodd" d="M19.2483 1330.29C106.301 1310.43 202.968 1290.7 275.548 1346.43C356.328 1408.44 404.943 1516.84 401.862 1624.03C398.849 1728.87 331.148 1813.63 260.072 1884.88C192.389 1952.72 110.773 2019.78 19.2483 2007.55C-67.0201 1996.01 -109.977 1897.02 -168.663 1827.56C-222.953 1763.31 -309.52 1710.98 -304.816 1624.03C-300.168 1538.13 -208.783 1498.26 -147.858 1443.03C-95.5403 1395.61 -47.5069 1345.53 19.2483 1330.29Z" fill="#FFD200"/>
<path opacity="0.5" fill-rule="evenodd" clip-rule="evenodd" d="M1241.2 1829.25C1272.96 1787.65 1336.89 1804.74 1388.38 1795.31C1436.81 1786.44 1484.89 1755.09 1529.22 1776.5C1576.55 1799.36 1601.73 1851.94 1612.25 1903.44C1622.65 1954.32 1614.17 2007.7 1585.28 2050.85C1556.86 2093.27 1510.4 2117.67 1460.77 2129.63C1409.74 2141.92 1353.2 2146.73 1309.8 2117.21C1267.1 2088.16 1257.1 2033.17 1245.13 1982.93C1232.79 1931.11 1208.87 1871.59 1241.2 1829.25Z" fill="#FFED9A"/>
</svg>
