<svg width="1429" height="1605" viewBox="0 0 1429 1605" fill="none" xmlns="http://www.w3.org/2000/svg">
<g clip-path="url(#clip0_313_22)">
<path opacity="0.5" fill-rule="evenodd" clip-rule="evenodd" d="M-24.3255 100.787C8.33127 58.0141 74.0673 75.5861 127.001 65.8911C176.798 56.7711 226.224 24.5331 271.81 46.5511C320.473 70.0541 346.361 124.117 357.178 177.064C367.866 229.374 359.15 284.262 329.44 328.622C300.229 372.237 252.459 397.324 201.426 409.618C148.958 422.257 90.8293 427.208 46.2073 396.851C2.30426 366.984 -7.97173 310.446 -20.2771 258.792C-32.9701 205.513 -57.5624 144.32 -24.3255 100.787Z" fill="#FFED9A"/>
<path opacity="0.5" fill-rule="evenodd" clip-rule="evenodd" d="M1400.25 189.295C1487.3 169.432 1583.97 149.704 1656.55 205.425C1737.33 267.441 1785.94 375.839 1782.86 483.031C1779.85 587.872 1712.15 672.632 1641.07 743.875C1573.39 811.718 1491.77 878.781 1400.25 866.546C1313.98 855.014 1271.02 756.016 1212.34 686.564C1158.05 622.315 1071.48 569.978 1076.18 483.031C1080.83 397.131 1172.22 357.256 1233.14 302.033C1285.46 254.611 1333.49 204.526 1400.25 189.295Z" fill="#FFD200"/>
<path opacity="0.5" fill-rule="evenodd" clip-rule="evenodd" d="M-70.7517 926.29C16.3011 906.432 112.968 886.704 185.548 942.43C266.328 1004.44 314.943 1112.84 311.862 1220.03C308.849 1324.87 241.148 1409.63 170.072 1480.88C102.389 1548.72 20.7725 1615.78 -70.7517 1603.55C-157.02 1592.01 -199.977 1493.02 -258.663 1423.56C-312.953 1359.31 -399.52 1306.98 -394.816 1220.03C-390.168 1134.13 -298.783 1094.26 -237.858 1039.03C-185.54 991.61 -137.507 941.53 -70.7517 926.29Z" fill="#FFD200"/>
</g>
<defs>
<clipPath id="clip0_313_22">
<rect width="1429" height="1689" fill="white" transform="translate(0 -84)"/>
</clipPath>
</defs>
</svg>
